<?xml version="1.0" standalone="no"?>
<!DOCTYPE svg PUBLIC "-//W3C//DTD SVG 20010904//EN"
 "http://www.w3.org/TR/2001/REC-SVG-20010904/DTD/svg10.dtd">
<svg version="1.0" xmlns="http://www.w3.org/2000/svg"
 width="700.000000pt" height="700.000000pt" viewBox="0 0 700.000000 700.000000"
 preserveAspectRatio="xMidYMid meet">
<metadata>
Created by potrace 1.14, written by Peter Selinger 2001-2017
</metadata>
<g transform="translate(0.000000,700.000000) scale(0.100000,-0.100000)"
fill="#000000" stroke="none">
<path d="M2579 5660 c-84 -135 -400 -657 -409 -675 -6 -11 -16 -29 -22 -40
-18 -28 -60 -95 -78 -126 -13 -23 -179 -300 -235 -393 -11 -18 -45 -74 -75
-125 -30 -51 -63 -104 -72 -119 -9 -15 -23 -38 -31 -52 -19 -35 -476 -799
-495 -830 -9 -14 -22 -34 -28 -45 -6 -11 -68 -115 -137 -232 -70 -117 -127
-216 -127 -221 0 -4 10 -8 23 -8 29 -1 243 -13 327 -19 64 -4 275 -15 397 -20
47 -2 66 1 76 14 31 35 299 452 402 625 34 57 357 581 418 679 32 51 60 100
64 110 3 9 9 17 14 17 5 0 9 6 9 13 0 7 6 19 13 26 10 10 32 -8 113 -95 l102
-108 157 240 c86 131 179 272 205 311 27 40 51 81 55 92 4 13 -16 54 -65 131
-38 62 -70 114 -70 116 0 2 -24 41 -53 86 -29 46 -133 211 -231 368 -97 157
-185 296 -195 309 l-19 25 -33 -54z"/>
<path d="M4303 5550 c-43 -71 -83 -137 -88 -147 -6 -10 -69 -117 -142 -238
-72 -121 -139 -234 -149 -252 -11 -18 -55 -92 -98 -165 -44 -73 -115 -194
-158 -268 -44 -74 -84 -142 -89 -150 -44 -73 -249 -423 -249 -427 0 -3 -8 -17
-19 -31 -10 -15 -29 -47 -43 -72 -14 -25 -68 -117 -120 -205 -52 -88 -106
-180 -120 -205 -14 -25 -98 -169 -188 -320 -89 -151 -172 -293 -185 -315 -12
-22 -53 -92 -90 -155 -135 -228 -168 -286 -200 -340 -17 -30 -43 -73 -56 -94
l-25 -40 -435 3 c-369 2 -591 4 -1228 15 l-85 1 -92 -155 c-51 -85 -102 -168
-112 -185 -11 -16 -81 -132 -155 -258 l-136 -227 52 -1 c559 -7 2675 -14 2679
-9 3 4 196 342 285 500 11 19 63 109 115 200 53 91 104 181 115 200 118 208
272 475 508 885 156 270 295 512 310 540 16 27 52 89 81 138 30 49 54 91 54
92 0 4 139 237 144 242 4 5 63 -98 156 -272 23 -44 59 -111 80 -150 34 -63
133 -249 273 -515 143 -271 186 -348 200 -357 23 -14 175 -20 691 -29 l408 -6
-28 48 c-24 41 -288 471 -668 1086 -50 82 -95 156 -101 166 -12 21 -273 442
-320 517 -18 28 -63 100 -100 160 -88 142 -162 261 -190 305 -12 19 -86 139
-165 265 -195 313 -222 355 -231 355 -4 0 -43 -58 -86 -130z"/>
<path d="M4109 2648 c-74 -112 -137 -204 -141 -206 -5 -2 -8 -7 -8 -11 0 -4
-40 -68 -88 -142 -49 -74 -94 -143 -100 -155 -12 -22 22 -87 208 -404 41 -69
81 -138 89 -153 9 -16 21 -36 26 -45 6 -9 39 -65 74 -124 34 -60 68 -111 74
-115 15 -9 207 -11 1590 -17 l1129 -6 -38 68 c-20 37 -55 96 -76 131 -21 34
-38 65 -38 66 0 2 -29 54 -65 115 -36 61 -76 130 -89 153 -13 23 -53 93 -90
156 -36 62 -66 116 -66 118 0 3 -8 15 -17 27 l-18 22 -485 -2 c-267 -1 -651
-3 -854 -4 -298 -2 -371 1 -381 11 -7 8 -90 131 -186 274 -204 307 -300 445
-309 445 -3 0 -67 -91 -141 -202z"/>
</g>
</svg>
